<svg width="22" height="22" viewBox="0 0 22 22" fill="none" xmlns="http://www.w3.org/2000/svg">
<g filter="url(#filter0_dddddd_304_205)">
<circle cx="8" cy="8" r="8" transform="matrix(-1 0 0 1 19 3)" fill="#FEFEFE"/>
</g>
<path d="M5.248 11.12C5.248 10.7733 5.30933 10.4347 5.432 10.104C5.56 9.768 5.744 9.464 5.984 9.192C6.224 8.91467 6.51733 8.696 6.864 8.536C7.21067 8.37067 7.60533 8.288 8.048 8.288C8.57067 8.288 9.02133 8.40267 9.4 8.632C9.784 8.86133 10.0693 9.16 10.256 9.528L9.408 10.112C9.312 9.89867 9.18667 9.73067 9.032 9.608C8.87733 9.48 8.712 9.392 8.536 9.344C8.36 9.29067 8.18667 9.264 8.016 9.264C7.73867 9.264 7.496 9.32 7.288 9.432C7.08533 9.544 6.91467 9.69067 6.776 9.872C6.63733 10.0533 6.53333 10.256 6.464 10.48C6.4 10.704 6.368 10.928 6.368 11.152C6.368 11.4027 6.408 11.6453 6.488 11.88C6.568 12.1093 6.68 12.3147 6.824 12.496C6.97333 12.672 7.14933 12.8133 7.352 12.92C7.56 13.0213 7.78667 13.072 8.032 13.072C8.208 13.072 8.38667 13.0427 8.568 12.984C8.74933 12.9253 8.91733 12.832 9.072 12.704C9.22667 12.576 9.34667 12.4107 9.432 12.208L10.336 12.728C10.224 13.0107 10.04 13.2507 9.784 13.448C9.53333 13.6453 9.25067 13.7947 8.936 13.896C8.62133 13.9973 8.30933 14.048 8 14.048C7.59467 14.048 7.224 13.9653 6.888 13.8C6.552 13.6293 6.26133 13.4053 6.016 13.128C5.776 12.8453 5.58667 12.5307 5.448 12.184C5.31467 11.832 5.248 11.4773 5.248 11.12ZM15.8524 8.32V14H14.7564V11.576H12.1804V14H11.0764V8.32H12.1804V10.616H14.7564V8.32H15.8524Z" fill="#040A11"/>
<defs>
<filter id="filter0_dddddd_304_205" x="0.5" y="0.375" width="21" height="21" filterUnits="userSpaceOnUse" color-interpolation-filters="sRGB">
<feFlood flood-opacity="0" result="BackgroundImageFix"/>
<feColorMatrix in="SourceAlpha" type="matrix" values="0 0 0 0 0 0 0 0 0 0 0 0 0 0 0 0 0 0 127 0" result="hardAlpha"/>
<feOffset dy="-0.00345907"/>
<feGaussianBlur stdDeviation="0.0345907"/>
<feColorMatrix type="matrix" values="0 0 0 0 0 0 0 0 0 0 0 0 0 0 0 0 0 0 0.07 0"/>
<feBlend mode="normal" in2="BackgroundImageFix" result="effect1_dropShadow_304_205"/>
<feColorMatrix in="SourceAlpha" type="matrix" values="0 0 0 0 0 0 0 0 0 0 0 0 0 0 0 0 0 0 127 0" result="hardAlpha"/>
<feOffset dy="-0.00831263"/>
<feGaussianBlur stdDeviation="0.0831263"/>
<feColorMatrix type="matrix" values="0 0 0 0 0 0 0 0 0 0 0 0 0 0 0 0 0 0 0.0503198 0"/>
<feBlend mode="normal" in2="effect1_dropShadow_304_205" result="effect2_dropShadow_304_205"/>
<feColorMatrix in="SourceAlpha" type="matrix" values="0 0 0 0 0 0 0 0 0 0 0 0 0 0 0 0 0 0 127 0" result="hardAlpha"/>
<feOffset dy="-0.0156519"/>
<feGaussianBlur stdDeviation="0.156519"/>
<feColorMatrix type="matrix" values="0 0 0 0 0 0 0 0 0 0 0 0 0 0 0 0 0 0 0.0417275 0"/>
<feBlend mode="normal" in2="effect2_dropShadow_304_205" result="effect3_dropShadow_304_205"/>
<feColorMatrix in="SourceAlpha" type="matrix" values="0 0 0 0 0 0 0 0 0 0 0 0 0 0 0 0 0 0 127 0" result="hardAlpha"/>
<feOffset dy="-0.0279204"/>
<feGaussianBlur stdDeviation="0.279204"/>
<feColorMatrix type="matrix" values="0 0 0 0 0 0 0 0 0 0 0 0 0 0 0 0 0 0 0.035 0"/>
<feBlend mode="normal" in2="effect3_dropShadow_304_205" result="effect4_dropShadow_304_205"/>
<feColorMatrix in="SourceAlpha" type="matrix" values="0 0 0 0 0 0 0 0 0 0 0 0 0 0 0 0 0 0 127 0" result="hardAlpha"/>
<feOffset dy="-0.052222"/>
<feGaussianBlur stdDeviation="0.52222"/>
<feColorMatrix type="matrix" values="0 0 0 0 0 0 0 0 0 0 0 0 0 0 0 0 0 0 0.0282725 0"/>
<feBlend mode="normal" in2="effect4_dropShadow_304_205" result="effect5_dropShadow_304_205"/>
<feColorMatrix in="SourceAlpha" type="matrix" values="0 0 0 0 0 0 0 0 0 0 0 0 0 0 0 0 0 0 127 0" result="hardAlpha"/>
<feOffset dy="-0.125"/>
<feGaussianBlur stdDeviation="1.25"/>
<feColorMatrix type="matrix" values="0 0 0 0 0 0 0 0 0 0 0 0 0 0 0 0 0 0 0.0196802 0"/>
<feBlend mode="normal" in2="effect5_dropShadow_304_205" result="effect6_dropShadow_304_205"/>
<feBlend mode="normal" in="SourceGraphic" in2="effect6_dropShadow_304_205" result="shape"/>
</filter>
</defs>
</svg>
